<?xml version="1.0" encoding="utf-8"?>
<!-- Generator: Adobe Illustrator 22.1.0, SVG Export Plug-In . SVG Version: 6.00 Build 0)  -->
<svg version="1.1" id="Ebene_1" xmlns="http://www.w3.org/2000/svg" xmlns:xlink="http://www.w3.org/1999/xlink" x="0px" y="0px"
	 viewBox="0 0 412.1 74" style="enable-background:new 0 0 412.1 74;" xml:space="preserve">
<style type="text/css">
	.st0{fill:#FFFFFF;}
	.st1{fill:#A5DE37;}
	.st2{fill:#C8F178;}
</style>
<g id="Ebene_1_1_">
	<g>
		<g>
			<path class="st0" d="M88.8,19.7h6.7v11.1h0.1c0.7-1,1.7-1.7,2.9-2.3c1.2-0.5,2.5-0.9,3.8-1.1c0.3,0,0.7-0.1,1-0.1s0.6,0,0.9,0
				c4.1,0,7.5,1.4,10.1,4.1s3.9,5.9,3.9,9.4c0,0.5,0,1.1-0.1,1.6c-0.1,0.6-0.2,1.1-0.4,1.7c-0.3,1.1-0.7,2.2-1.2,3.2s-1.2,2-1.9,2.7
				c-1.2,1.4-2.8,2.4-4.6,3.1c-1.8,0.7-3.7,1.1-5.6,1.1s-3.7-0.3-5.3-1c-1.6-0.7-3-1.7-4.1-3.2h-0.1v3.4h-6.2L88.8,19.7L88.8,19.7z
				 M97.6,35.4c-1.7,1.4-2.5,3.1-2.5,5.2c0,2.2,0.8,4.1,2.3,5.6s3.6,2.3,6.1,2.3c2.4,0,4.3-0.7,5.8-2.2c1.5-1.4,2.2-3.2,2.2-5.4
				c0-2.1-0.7-3.9-2.2-5.4s-3.4-2.2-5.8-2.2C101.2,33.3,99.3,34,97.6,35.4z"/>
			<path class="st0" d="M150.3,53.6h-6.2v-3.4H144c-0.8,1.1-1.9,2-3.3,2.7c-1.4,0.7-2.8,1.2-4.3,1.4c-0.3,0-0.6,0.1-0.9,0.1
				c-0.3,0-0.6,0-0.9,0c-2.2,0-4.1-0.4-5.8-1.1c-1.7-0.7-3.2-1.8-4.4-3.1c-1.1-1.2-2-2.6-2.6-4.2c-0.6-1.6-0.9-3.3-0.9-5
				c0-1.8,0.3-3.4,0.8-4.9c0.6-1.5,1.5-2.9,2.7-4.2c1.4-1.5,3-2.6,4.7-3.3c1.7-0.7,3.6-1.1,5.7-1.1c1.9,0,3.7,0.4,5.3,1.1
				s3,1.8,4.1,3.3v-3.6h6.2v25.3H150.3z M144,40.8c0-2.1-0.7-3.9-2.2-5.3c-1.5-1.5-3.4-2.2-5.8-2.1c-2.5,0-4.5,0.7-6,2.2
				c-1.6,1.5-2.3,3.4-2.3,5.6c0,2.1,0.8,3.8,2.4,5.2c1.6,1.4,3.6,2.1,5.8,2.1c2.4,0,4.4-0.7,5.9-2.2C143.2,44.9,144,43,144,40.8
				L144,40.8z"/>
			<path class="st0" d="M155.3,19.7h6.7v33.9h-6.7V19.7z"/>
			<path class="st0" d="M173.3,43.6c0.5,1.5,1.4,2.7,2.8,3.6c1.4,0.9,2.9,1.3,4.6,1.3c1.3,0,2.5-0.2,3.6-0.6c1.1-0.4,2-0.9,2.6-1.6
				h7.4c-0.8,2.3-2.5,4.2-5.1,5.8s-5.3,2.4-8.3,2.4c-4.1,0-7.5-1.3-10.4-3.9c-2.9-2.6-4.3-5.7-4.3-9.4c0-3.8,1.4-7,4.3-9.7
				c2.9-2.7,6.4-4,10.5-4c4,0,7.4,1.3,10.2,4s4.2,5.8,4.2,9.3c0,0.4,0,0.8-0.1,1.2s-0.1,0.8-0.2,1.1c0,0.1-0.1,0.2-0.1,0.3
				s0,0.2,0,0.3L173.3,43.6L173.3,43.6z M188.6,38.2c-0.5-1.5-1.5-2.7-2.9-3.5c-1.4-0.9-3-1.3-4.7-1.3c-0.1,0-0.1,0-0.2,0
				c-0.1,0-0.1,0-0.2,0c-1.6,0.1-3.1,0.6-4.5,1.4c-1.4,0.9-2.4,2-2.8,3.4C173.3,38.2,188.6,38.2,188.6,38.2z"/>
			<path class="st0" d="M199.7,28.2h6.2v2.3h0.1c0.8-0.9,1.8-1.7,3-2.2c1.3-0.5,2.6-0.8,4-0.9c0.1,0,0.2,0,0.3,0s0.2,0,0.3,0
				s0.3,0,0.4,0c0.1,0,0.3,0,0.4,0c1.3,0.1,2.6,0.4,3.9,1c1.3,0.5,2.3,1.3,3.3,2.2c0.1,0.1,0.3,0.2,0.4,0.3c0.1,0.1,0.2,0.2,0.3,0.4
				c1.1,1.4,1.7,2.8,1.9,4.4s0.3,3.1,0.3,4.8v13.1h-6.7v-12c0-0.4,0-0.8,0-1.2s0-0.9-0.1-1.3c-0.1-0.7-0.2-1.3-0.4-1.9
				c-0.2-0.6-0.4-1.2-0.8-1.7c-0.4-0.6-1-1.1-1.8-1.5s-1.5-0.6-2.3-0.6h-0.1c-0.1,0-0.1,0-0.2,0c-0.1,0-0.2,0-0.3,0s-0.2,0-0.4,0
				c-0.8,0.1-1.5,0.3-2.3,0.7c-0.7,0.4-1.3,0.9-1.7,1.5c-0.3,0.5-0.6,1.1-0.8,1.7c-0.2,0.7-0.3,1.3-0.3,2c0,0.4,0,0.8,0,1.2
				s0,0.8,0,1.1c0,0.1,0,0.2,0,0.3s0,0.1,0,0.2v11.5h-6.7V28.2H199.7z"/>
			<path class="st0" d="M258.2,53.6H252v-3.4h-0.1c-0.8,1.1-1.9,2-3.3,2.7c-1.4,0.7-2.8,1.2-4.3,1.4c-0.3,0-0.6,0.1-0.9,0.1
				c-0.3,0-0.6,0-0.9,0c-2.2,0-4.1-0.4-5.8-1.1c-1.7-0.7-3.2-1.8-4.4-3.1c-1.1-1.2-2-2.6-2.6-4.2c-0.6-1.6-0.9-3.3-0.9-5
				c0-1.8,0.3-3.4,0.8-4.9c0.6-1.5,1.5-2.9,2.7-4.2c1.4-1.5,3-2.6,4.7-3.3c1.7-0.7,3.6-1.1,5.7-1.1c1.9,0,3.7,0.4,5.3,1.1
				s3,1.8,4.1,3.3v-3.6h6.2v25.3H258.2z M251.8,40.8c0-2.1-0.7-3.9-2.2-5.3c-1.5-1.5-3.4-2.2-5.8-2.1c-2.5,0-4.5,0.7-6,2.2
				c-1.6,1.5-2.3,3.4-2.3,5.6c0,2.1,0.8,3.8,2.4,5.2c1.6,1.4,3.6,2.1,5.8,2.1c2.4,0,4.4-0.7,5.9-2.2C251.1,44.9,251.8,43,251.8,40.8
				L251.8,40.8z"/>
		</g>
		<g>
			<path class="st1" d="M34.9,43.9v20.6c0.9-0.2,1.7-0.4,2.5-0.9l17.1-9.8c2.5-1.4,4-4.1,4-7V27.3c0-0.8-0.1-1.6-0.4-2.3L39.6,35.7
				C35.7,38.4,34.9,40.9,34.9,43.9z"/>
			<path class="st2" d="M64.9,21l-6.8,3.9c0.2,0.7,0.4,1.5,0.4,2.3v19.6c0,2.9-1.6,5.6-4,7l-17.1,9.8c-0.8,0.4-1.6,0.7-2.5,0.9v7.8
				c1.2-0.2,2.4-0.6,3.4-1.2l22.2-12.7c3.1-1.8,5-5.1,5-8.7V24.3C65.5,23.2,65.3,22.1,64.9,21z"/>
			<path class="st1" d="M33.3,37.4c1-1.6,2.5-3.1,4.7-4.4l18.7-10.8c-0.6-0.8-1.4-1.5-2.2-2l-17.1-9.8c-2.5-1.4-5.6-1.4-8.1,0
				l-17,9.8c-0.9,0.5-1.6,1.2-2.3,2L28.6,33C30.8,34.4,32.3,35.8,33.3,37.4z"/>
			<path class="st2" d="M12.3,20.3l17-9.8c2.5-1.4,5.6-1.4,8.1,0l17.1,9.8c0.9,0.5,1.6,1.2,2.2,2l6.8-3.9c-0.8-1.1-1.8-2-3-2.6
				L38.3,2.9c-3.1-1.8-6.9-1.8-10,0l-22,12.8c-1.2,0.7-2.2,1.6-3,2.7l6.8,3.9C10.6,21.5,11.4,20.8,12.3,20.3z"/>
			<path class="st2" d="M29.3,63.6l-17-9.8c-2.5-1.4-4-4.1-4-7V27.2c0-0.8,0.1-1.5,0.3-2.2l-6.8-3.9c-0.4,1.1-0.6,2.1-0.6,3.2v25.5
				c0,3.6,1.9,6.9,5,8.6l22.1,12.7c1,0.6,2.2,1,3.4,1.2v-7.8C30.9,64.4,30.1,64.1,29.3,63.6z"/>
			<path class="st1" d="M27,35.6L8.6,25c-0.2,0.7-0.3,1.5-0.3,2.2v19.6c0,2.9,1.5,5.6,4,7l17,9.8c0.8,0.4,1.6,0.7,2.5,0.9V43.9
				C31.7,40.9,30.9,38.4,27,35.6z"/>
		</g>
		<path class="st1" d="M267.6,19.4H287v7.7h-10.6v5.3h10.3v7.7h-10.3V46H287v7.7h-19.4V19.4z"/>
		<path class="st1" d="M294.3,33.8h-3.8V28h3.8v-8.5h7.7V28h3.7v5.8H302v19.8h-7.7V33.8z"/>
		<path class="st1" d="M334.5,43.9c-1.4,5.8-6.5,10.6-13.4,10.6c-7.8,0-13.7-6.1-13.7-13.7c0-7.5,5.9-13.6,13.5-13.6
			c6.8,0,12.3,4.5,13.6,10.8h-7.8c-0.8-1.8-2.4-3.6-5.5-3.6c-1.8-0.1-3.3,0.6-4.4,1.8s-1.7,2.9-1.7,4.7c0,3.7,2.4,6.5,6.1,6.5
			c3.2,0,4.7-1.8,5.5-3.4L334.5,43.9L334.5,43.9z"/>
		<path class="st1" d="M338,19.4h7.7v7.7v3.2c1.4-2.3,4-3.2,6.7-3.2c3.9,0,6.2,1.4,7.6,3.6s1.8,5.3,1.8,8.5v14.3h-7.7v-14
			c0-1.4-0.2-2.8-0.8-3.7c-0.6-1-1.7-1.6-3.3-1.6c-2.1,0-3.2,1-3.7,2.1c-0.6,1.1-0.6,2.4-0.6,3v14.2H338V19.4z"/>
		<path class="st1" d="M373.5,43.5c0.3,2.7,2.9,4.5,5.9,4.5c2.4,0,3.7-1.1,4.7-2.4h7.9c-1.2,2.9-3,5.1-5.2,6.6
			c-2.1,1.5-4.7,2.3-7.3,2.3c-7.3,0-13.6-6-13.6-13.6c0-7.2,5.6-13.8,13.4-13.8c3.9,0,7.3,1.5,9.7,4.1c3.2,3.5,4.2,7.6,3.6,12.3
			C392.6,43.5,373.5,43.5,373.5,43.5z M385,37.6c-0.2-1.2-1.8-4.1-5.7-4.1c-4,0-5.5,2.9-5.7,4.1H385z"/>
		<path class="st1" d="M397,28h7.2v2.9c0.7-1.4,2.1-3.7,6.5-3.7v7.7h-0.3c-3.9,0-5.8,1.4-5.8,5v13.8H397V28z"/>
	</g>
</g>
</svg>
