<?xml version="1.0" encoding="utf-8"?>
<!-- Generator: Adobe Illustrator 22.1.0, SVG Export Plug-In . SVG Version: 6.00 Build 0)  -->
<svg version="1.1" id="Ebene_1" xmlns="http://www.w3.org/2000/svg" xmlns:xlink="http://www.w3.org/1999/xlink" x="0px" y="0px"
	 viewBox="0 0 66 74" style="enable-background:new 0 0 66 74;" xml:space="preserve">
<style type="text/css">
	.st0{fill:#00D2EA;}
</style>
<g>
	<path class="st0" d="M58.3,27.4V47c0,2.9-1.6,5.6-4,7l-17.1,9.8c-0.5,0.3-0.9,0.5-1.4,0.6v7.8c0.8-0.2,1.6-0.5,2.4-1l22.2-12.7
		c3.1-1.8,5-5.1,5-8.7V24.5c0-0.9-0.1-1.7-0.4-2.6l-6.8,4C58.2,26.4,58.3,26.9,58.3,27.4z"/>
	<path class="st0" d="M6,15.8c-0.9,0.5-1.7,1.2-2.3,1.9l6.7,4c0.5-0.5,1-1,1.6-1.3l17-9.8c2.5-1.4,5.6-1.4,8.1,0l17.1,9.8
		c0.5,0.3,1,0.7,1.4,1.1l6.7-4c-0.6-0.6-1.3-1.2-2.1-1.7L38.1,3.1c-3.1-1.8-6.9-1.8-10,0L6,15.8z"/>
	<path class="st0" d="M29.1,63.8l-17-9.8c-2.5-1.4-4-4.1-4-7V27.4c0-0.4,0-0.7,0.1-1.1l-6.8-4C1.1,23,1,23.7,1,24.5v25.5
		c0,3.6,1.9,6.9,5,8.6l22.1,12.7c0.8,0.4,1.6,0.8,2.5,1v-7.8C30.1,64.3,29.6,64.1,29.1,63.8z"/>
</g>
</svg>
